<svg width="242" height="76" viewBox="0 0 242 76" fill="none" xmlns="http://www.w3.org/2000/svg">
<path d="M85.0701 52.3633H79.5584V21.9296H85.0701V52.3633Z" fill="white"/>
<path d="M111.486 40.351V52.3562H106.17V40.4632C106.17 37.7073 103.969 35.5405 101.29 35.5405C98.576 35.5405 96.3671 37.6652 96.3671 40.7787V52.3562H91.0518V30.8632H95.8973V33.2615C97.5522 31.2139 99.9505 30.3093 102.356 30.3093C107.945 30.3163 111.486 34.7201 111.486 40.351Z" fill="white"/>
<path d="M129.872 51.2202C128.379 52.2019 126.212 52.9522 124.283 52.9522C120.188 52.9522 117.986 49.8037 117.986 45.7856V35.1548H113.302V30.8632H118.028V24.2085H123.386V30.8632H129.564V35.1548H123.386V45.5121C123.386 47.3984 124.255 48.0295 125.903 48.0716C126.689 48.1137 127.635 47.756 128.147 47.5176L129.872 51.2202Z" fill="white"/>
<path d="M131.134 41.536C131.134 35.1548 136.211 29.9586 142.516 29.9586C148.778 29.9586 153.855 35.1548 153.855 41.536C153.855 47.9173 148.778 53.1135 142.516 53.1135C136.211 53.1065 131.134 47.9103 131.134 41.536ZM136.45 41.536C136.45 45.1614 139.164 48.0716 142.516 48.0716C145.825 48.0716 148.539 45.1614 148.539 41.536C148.539 37.9106 145.825 35.0005 142.516 35.0005C139.164 35.0005 136.45 37.9106 136.45 41.536Z" fill="white"/>
<path d="M183.264 21.9294V52.3631H177.753V39.5656H164.093V52.3631H158.581V21.9294H164.093V34.4115H177.753V21.9294H183.264Z" fill="white"/>
<path d="M188.496 25.1972C188.496 23.388 190.031 21.8874 191.918 21.8874C193.769 21.8874 195.305 23.381 195.305 25.1972C195.305 27.0064 193.769 28.465 191.918 28.465C190.031 28.465 188.496 27.0064 188.496 25.1972ZM189.211 30.8632H194.526V52.3561H189.211V30.8632Z" fill="white"/>
<path d="M205.704 52.3632L197.514 30.8702H203.187L208.425 45.2807L213.663 30.8702H219.329L211.139 52.3632H205.704Z" fill="white"/>
<path d="M239.013 43.6958H225.942C226.692 46.1782 228.971 47.9453 231.334 47.9453C233.578 47.9453 235.233 46.9215 236.061 45.9749C236.257 45.7014 236.53 45.4209 236.53 45.4209L240.387 48.7658C238.774 50.8905 235.542 52.9382 231.334 52.9382C225.43 52.9382 220.465 47.8612 220.465 41.5991C220.465 35.3371 225.423 30.2601 231.334 30.2601C234.721 30.2601 238.108 31.9501 240.072 34.8252C241.369 36.7115 242 38.7241 242 40.926C242.007 42.3635 240.983 43.6958 239.013 43.6958ZM225.9 39.6427H236.488C235.976 37.7143 234.364 35.4283 231.334 35.4283C228.775 35.4283 226.608 37.2445 225.9 39.6427Z" fill="white"/>
<path fill-rule="evenodd" clip-rule="evenodd" d="M59.7835 33.5349H52.3714V37.6021C52.3714 47.742 44.1529 55.9535 34.02 55.9535C23.8802 55.9535 15.6687 47.735 15.6687 37.6021V33.5349H8.16543L0.164311 38.7521C0.0871752 60.7008 -2.58454 55.7641 17.0922 67.1242C37.0494 78.6455 30.9907 78.6455 50.9479 67.1242C70.5966 55.7782 67.9599 60.6868 67.8758 38.8363L59.7835 33.5349Z" fill="url(#paint0_linear_2_280)"/>
<path fill-rule="evenodd" clip-rule="evenodd" d="M0.164296 38.7661L23.1158 23.8087L34.02 16.6421L51.7403 28.2826L67.8758 38.8573C67.8758 38.5628 67.8758 38.2683 67.8758 37.9597C67.8758 14.9171 70.9051 20.1623 50.9479 8.641C30.9907 -2.88033 37.0494 -2.88033 17.0922 8.641C-2.86505 20.1623 0.164296 14.9171 0.164296 37.9597C0.164296 38.2262 0.164296 38.4997 0.164296 38.7661Z" fill="url(#paint1_linear_2_280)"/>
<defs>
<linearGradient id="paint0_linear_2_280" x1="33.6052" y1="34.4574" x2="35.3076" y2="87.5711" gradientUnits="userSpaceOnUse">
<stop offset="0.0655" stop-color="#743F1A"/>
<stop offset="0.1764" stop-color="#7D461D"/>
<stop offset="0.3707" stop-color="#945A23"/>
<stop offset="0.573" stop-color="#B2752A"/>
</linearGradient>
<linearGradient id="paint1_linear_2_280" x1="34.5279" y1="0.740577" x2="33.5064" y2="54.8757" gradientUnits="userSpaceOnUse">
<stop offset="0.0655" stop-color="#743F1A"/>
<stop offset="0.1764" stop-color="#7D461D"/>
<stop offset="0.3707" stop-color="#945A23"/>
<stop offset="0.573" stop-color="#B2752A"/>
</linearGradient>
</defs>
</svg>
